<svg width="25" height="24" viewBox="0 0 25 24" fill="none" xmlns="http://www.w3.org/2000/svg">
<path d="M21.617 8.27578L15.6662 7.41093L13.006 2.01797C12.9334 1.87031 12.8139 1.75078 12.6662 1.67812C12.2959 1.49531 11.8459 1.64765 11.6607 2.01797L9.00057 7.41093L3.04979 8.27578C2.88573 8.29922 2.73573 8.37656 2.62089 8.49375C2.48205 8.63645 2.40554 8.82843 2.40818 9.02752C2.41081 9.2266 2.49238 9.41649 2.63495 9.55547L6.94042 13.7531L5.92323 19.6805C5.89938 19.8183 5.91464 19.9602 5.96727 20.0898C6.01991 20.2195 6.10783 20.3318 6.22105 20.414C6.33427 20.4962 6.46826 20.5451 6.60784 20.555C6.74742 20.565 6.88699 20.5356 7.01073 20.4703L12.3334 17.6719L17.656 20.4703C17.8014 20.5477 17.9701 20.5734 18.1318 20.5453C18.5396 20.475 18.8139 20.0883 18.7435 19.6805L17.7264 13.7531L22.0318 9.55547C22.149 9.44062 22.2264 9.29062 22.2498 9.12656C22.3131 8.7164 22.0271 8.33672 21.617 8.27578ZM15.9146 13.1625L16.7607 18.0914L12.3334 15.7664L7.90604 18.0937L8.75214 13.1648L5.17089 9.67265L10.1209 8.95312L12.3334 4.46953L14.5459 8.95312L19.4959 9.67265L15.9146 13.1625Z" fill="#515151"/>
</svg>
